<svg xmlns="http://www.w3.org/2000/svg" width="829" height="677" viewBox="0 0 829 677"><g transform="translate(-501 -1780)"><rect width="829" height="677" transform="translate(501 1780)" fill="#1e1d2b"/><g transform="translate(501 1780)"><circle cx="11" cy="11" r="11" transform="translate(539 164.079)" fill="#3f3d56"/><circle cx="11" cy="11" r="11" transform="translate(539 251.079)" fill="#3f3d56"/><circle cx="11" cy="11" r="11" transform="translate(649 273.079)" fill="#3f3d56"/><path d="M836.916,443.7c-4.594-7.577-20.639-7.381-20.639-7.381-14.609,21.706-49.726-1.351-49.726-1.351-26.082,11.669-42-25.517-42-25.517-35.1-5.248-29.673-42.107-29.673-42.107-17.46-3.506-12.561-35.074-12.561-35.074s9.688-7.946,4.921-13.759c-3.031-3.7-3.219-14.3-2.955-21.543A240.948,240.948,0,0,0,614,286.54c-133.1,0-241,107.9-241,241s107.9,241,241,241,241-107.9,241-241a240.448,240.448,0,0,0-15.312-84.675C838.451,444.261,837.492,444.645,836.916,443.7Z" transform="translate(-195 -111.46)" fill="#3f3d56"/><path d="M836.916,443.7c-4.594-7.577-20.639-7.381-20.639-7.381-14.609,21.706-49.726-1.351-49.726-1.351-26.082,11.669-42-25.517-42-25.517-35.1-5.248-29.673-42.107-29.673-42.107-17.46-3.506-12.561-35.074-12.561-35.074s9.688-7.946,4.921-13.759c-3.031-3.7-3.219-14.3-2.955-21.543A240.948,240.948,0,0,0,614,286.54c-133.1,0-241,107.9-241,241s107.9,241,241,241,241-107.9,241-241a240.448,240.448,0,0,0-15.312-84.675C838.451,444.261,837.492,444.645,836.916,443.7Z" transform="translate(-195 -111.46)" opacity="0.1"/><path d="M822.633,442.744c-4.369-7.206-19.629-7.02-19.629-7.02-13.894,20.643-47.292-1.285-47.292-1.285-24.806,11.1-39.941-24.268-39.941-24.268-33.377-4.991-28.221-40.045-28.221-40.045-16.606-3.334-11.946-33.357-11.946-33.357s9.214-7.557,4.68-13.086c-2.883-3.515-3.062-13.6-2.81-20.488a229.153,229.153,0,0,0-66.846-9.914c-126.585,0-229.2,102.618-229.2,229.2s102.618,229.2,229.2,229.2,229.2-102.618,229.2-229.2a228.675,228.675,0,0,0-14.563-80.53C824.093,443.282,823.181,443.647,822.633,442.744Z" transform="translate(-195 -111.46)" fill="#b1ad7e"/><path d="M583.262,428.777s-39.525-25.152-77.253,0c-13.2,8.8-19.807,21.348-22.811,33.936-5.341,22.383.516,45.98,14.8,64.022l85.352,107.813a25.371,25.371,0,0,0,25.3,9.219q.277-.062.558-.13a25.442,25.442,0,0,0,16.085-12.213l59.359-104.24a100.954,100.954,0,0,0,12.823-62.795c-2.784-21.437-13.078-44.035-42.347-51.783C655.125,412.608,620.99,398.235,583.262,428.777Z" transform="translate(-195 -111.46)" fill="#6c63ff"/><path d="M583.262,428.777s-39.525-25.152-77.253,0c-13.2,8.8-19.807,21.348-22.811,33.936-5.341,22.383.516,45.98,14.8,64.022l85.352,107.813a25.371,25.371,0,0,0,25.3,9.219q.277-.062.558-.13a25.442,25.442,0,0,0,16.085-12.213l59.359-104.24a100.954,100.954,0,0,0,12.823-62.795c-2.784-21.437-13.078-44.035-42.347-51.783C655.125,412.608,620.99,398.235,583.262,428.777Z" transform="translate(-195 -111.46)" opacity="0.1"/><path d="M583.664,434.847s-37.077-23.594-72.469,0c-12.387,8.258-18.581,20.026-21.4,31.835-5.011,21,.484,43.132,13.883,60.057l80.066,101.135a23.8,23.8,0,0,0,23.732,8.648q.26-.058.523-.121a23.865,23.865,0,0,0,15.089-11.456l55.682-97.784A94.7,94.7,0,0,0,690.8,468.255c-2.611-20.11-12.268-41.308-39.725-48.576C651.077,419.679,619.056,406.2,583.664,434.847Z" transform="translate(-195 -111.46)" fill="#6c63ff"/><path d="M585.107,475.3s-18.039-11.479-35.258,0a24.9,24.9,0,0,0-10.411,15.488,34.4,34.4,0,0,0,6.755,29.219s46.182,54.38,50.5,53.413l.255-.059c3.111-.747,34.432-53.148,34.432-53.148a46.075,46.075,0,0,0,5.853-28.659c-1.271-9.784-5.969-20.1-19.327-23.633C617.905,467.924,602.326,461.365,585.107,475.3Z" transform="translate(-195 -111.46)" opacity="0.1"/><path d="M277.434,449.785l5.056,8.427L292.6,475.065l3.371,11.8-6.741,10.112,8.426,20.224,3.371,11.8-6.741,6.741,13.482,10.112" opacity="0.1"/><path d="M525.175,375.631v13.483l-8.427,21.909-5.056,11.8,8.427,15.168L523.49,448.1l13.482,5.056,5.056,8.427v20.223" opacity="0.1"/><path d="M806.126,500.574,792.643,509s-6.741,3.371-6.741,5.056V527.54" transform="translate(-195 -111.46)" opacity="0.1"/><path d="M550.455,341.925l3.37,16.853-3.37,11.8" opacity="0.1"/><path d="M563.937,493.6l-10.112,15.167-11.8,10.112v6.741l6.741,8.427v10.112l-5.056,10.112" opacity="0.1"/><path d="M467.874,207.1H451.021l-13.483,11.8-21.909,11.8-10.112,8.427v3.371l-21.909,11.8-6.741,11.8" opacity="0.1"/><path d="M480.86,347.211l-15.168,30.336-5.056,11.8-11.8,15.168s-8.427,15.168-10.112,16.853-13.483,5.056-13.483,5.056L442.1,443.274" transform="translate(-195 -111.46)" opacity="0.1"/><path d="M218.448,352.037l-3.371,21.909,3.371,13.483v23.594l-10.112,43.818,10.112,11.8,11.8,15.168" opacity="0.1"/><path d="M243.727,362.149l10.112,5.056,6.741,21.909,13.483-3.371,6.741,11.8" opacity="0.1"/><path d="M429.112,581.24l26.965-3.371,11.8-11.8h16.853" opacity="0.1"/><path d="M265.636,545.848l10.112,11.8L292.6,562.7l11.8,3.371,3.37,18.538" opacity="0.1"/><path d="M464.5,488.548l11.8-8.427,5.056-13.483,10.112-1.685,5.055-16.853" opacity="0.1"/><circle cx="18" cy="18" r="18" transform="translate(186 216.079)" fill="#3f3d56"/><circle cx="18" cy="18" r="18" transform="translate(186 216.079)" opacity="0.1"/><circle cx="16.215" cy="16.215" r="16.215" transform="translate(187.785 217.864)" fill="#3f3d56"/><path d="M398.285,336.373s-4.131-2.629-8.075,0a5.7,5.7,0,0,0-2.384,3.547,7.879,7.879,0,0,0,1.547,6.692l8.921,11.269a2.652,2.652,0,0,0,2.644.964l.058-.014a2.659,2.659,0,0,0,1.681-1.277l6.2-10.9a10.552,10.552,0,0,0,1.34-6.564,5.9,5.9,0,0,0-4.426-5.413S402.229,333.181,398.285,336.373Z" transform="translate(-195 -111.46)" opacity="0.1"/><path d="M398.327,337.008s-3.875-2.466-7.575,0a5.35,5.35,0,0,0-2.237,3.328,7.391,7.391,0,0,0,1.451,6.277l8.369,10.571a2.488,2.488,0,0,0,2.481.9l.055-.013a2.5,2.5,0,0,0,1.577-1.2l5.82-10.221a9.9,9.9,0,0,0,1.257-6.157,5.531,5.531,0,0,0-4.152-5.077S402.026,334.013,398.327,337.008Z" transform="translate(-195 -111.46)" fill="#6c63ff"/><path d="M398.478,341.237a3.557,3.557,0,0,0-3.685,0,2.6,2.6,0,0,0-1.088,1.619,3.6,3.6,0,0,0,.706,3.054s4.827,5.684,5.279,5.583l.027-.006c.325-.078,3.6-5.555,3.6-5.555a4.816,4.816,0,0,0,.612-3,2.691,2.691,0,0,0-2.02-2.47,3.5,3.5,0,0,0-3.428.771Z" transform="translate(-195 -111.46)" opacity="0.1"/><circle cx="18" cy="18" r="18" transform="translate(170 226.079)" fill="#3f3d56"/><circle cx="18" cy="18" r="18" transform="translate(170 226.079)" opacity="0.1"/><circle cx="16.215" cy="16.215" r="16.215" transform="translate(171.785 227.864)" fill="#3f3d56"/><path d="M382.285,346.373s-4.131-2.629-8.075,0a5.7,5.7,0,0,0-2.384,3.547,7.879,7.879,0,0,0,1.547,6.692l8.921,11.269a2.652,2.652,0,0,0,2.644.964l.058-.014a2.659,2.659,0,0,0,1.681-1.277l6.2-10.9a10.552,10.552,0,0,0,1.34-6.564,5.9,5.9,0,0,0-4.426-5.413S386.229,343.181,382.285,346.373Z" transform="translate(-195 -111.46)" opacity="0.1"/><path d="M382.327,347.008s-3.875-2.466-7.575,0a5.35,5.35,0,0,0-2.237,3.328,7.391,7.391,0,0,0,1.451,6.277l8.369,10.571a2.488,2.488,0,0,0,2.481.9l.055-.013a2.494,2.494,0,0,0,1.577-1.2l5.82-10.221a9.9,9.9,0,0,0,1.257-6.157,5.531,5.531,0,0,0-4.152-5.077S386.026,344.013,382.327,347.008Z" transform="translate(-195 -111.46)" fill="#6c63ff"/><path d="M382.478,351.237a3.557,3.557,0,0,0-3.685,0,2.6,2.6,0,0,0-1.088,1.619,3.6,3.6,0,0,0,.706,3.054s4.827,5.684,5.279,5.583l.027-.006c.325-.078,3.6-5.555,3.6-5.555a4.816,4.816,0,0,0,.612-3,2.691,2.691,0,0,0-2.02-2.47,3.5,3.5,0,0,0-3.428.771Z" transform="translate(-195 -111.46)" opacity="0.1"/><path d="M369.274,310.538c-.438-.723-1.97-.7-1.97-.7-1.394,2.072-4.746-.129-4.746-.129-2.489,1.114-4.008-2.435-4.008-2.435-3.349-.5-2.832-4.018-2.832-4.018-1.666-.335-1.2-3.347-1.2-3.347s.925-.758.47-1.313a4.038,4.038,0,0,1-.282-2.056,22.985,22.985,0,1,0,14.831,13.924C369.421,310.592,369.329,310.628,369.274,310.538Z" transform="translate(-195 -111.46)" fill="#3f3d56"/><path d="M369.274,310.538c-.438-.723-1.97-.7-1.97-.7-1.394,2.072-4.746-.129-4.746-.129-2.489,1.114-4.008-2.435-4.008-2.435-3.349-.5-2.832-4.018-2.832-4.018-1.666-.335-1.2-3.347-1.2-3.347s.925-.758.47-1.313a4.038,4.038,0,0,1-.282-2.056,22.985,22.985,0,1,0,14.831,13.924C369.421,310.592,369.329,310.628,369.274,310.538Z" transform="translate(-195 -111.46)" opacity="0.1"/><path d="M367.911,310.447c-.417-.688-1.873-.67-1.873-.67-1.326,1.97-4.513-.123-4.513-.123-2.367,1.059-3.812-2.316-3.812-2.316-3.185-.476-2.693-3.822-2.693-3.822-1.585-.318-1.14-3.183-1.14-3.183s.879-.721.447-1.249a3.841,3.841,0,0,1-.268-1.955,21.86,21.86,0,1,0,14.1,13.243C368.05,310.5,367.963,310.533,367.911,310.447Z" transform="translate(-195 -111.46)" fill="#3f3d56"/><path d="M345.066,309.114s-3.772-2.4-7.373,0a5.208,5.208,0,0,0-2.177,3.239,7.194,7.194,0,0,0,1.412,6.11l8.146,10.289a2.421,2.421,0,0,0,2.414.88l.053-.012a2.428,2.428,0,0,0,1.535-1.165l5.665-9.948a9.634,9.634,0,0,0,1.224-5.993,5.383,5.383,0,0,0-4.041-4.942S348.667,306.2,345.066,309.114Z" transform="translate(-195 -111.46)" fill="#6c63ff"/><path d="M345.066,309.114s-3.772-2.4-7.373,0a5.208,5.208,0,0,0-2.177,3.239,7.194,7.194,0,0,0,1.412,6.11l8.146,10.289a2.421,2.421,0,0,0,2.414.88l.053-.012a2.428,2.428,0,0,0,1.535-1.165l5.665-9.948a9.634,9.634,0,0,0,1.224-5.993,5.383,5.383,0,0,0-4.041-4.942S348.667,306.2,345.066,309.114Z" transform="translate(-195 -111.46)" opacity="0.1"/><path d="M345.1,309.693s-3.538-2.252-6.916,0a4.885,4.885,0,0,0-2.042,3.038,6.748,6.748,0,0,0,1.325,5.732l7.641,9.652a2.271,2.271,0,0,0,2.265.825l.05-.012a2.278,2.278,0,0,0,1.44-1.093l5.314-9.332a9.038,9.038,0,0,0,1.148-5.622,5.05,5.05,0,0,0-3.791-4.636S348.483,306.959,345.1,309.693Z" transform="translate(-195 -111.46)" fill="#6c63ff"/><path d="M345.243,313.554a3.247,3.247,0,0,0-3.365,0,2.377,2.377,0,0,0-.994,1.478,3.283,3.283,0,0,0,.645,2.789s4.407,5.19,4.82,5.1l.024-.006a57.866,57.866,0,0,0,3.286-5.072,4.4,4.4,0,0,0,.559-2.735,2.457,2.457,0,0,0-1.845-2.255,3.2,3.2,0,0,0-3.13.7Z" transform="translate(-195 -111.46)" opacity="0.1"/><path d="M139.49,210.3l.482.8.965,1.608.322,1.126-.644.965.8,1.93.321,1.126-.643.644,1.287.965" opacity="0.1"/><path d="M163.133,203.219v1.287l-.8,2.091-.483,1.125.8,1.448.322.965,1.287.482.482.8v1.93" opacity="0.1"/><path d="M366.336,315.966l-1.287.8s-.643.322-.643.483v1.287" transform="translate(-195 -111.46)" opacity="0.1"/><path d="M165.545,200l.322,1.608-.322,1.126" opacity="0.1"/><path d="M166.832,214.478l-.965,1.447-1.126.965v.644l.644.8v.965l-.483.965" opacity="0.1"/><path d="M157.664,187.135h-1.608l-1.287,1.126-2.091,1.126-.965.8v.322l-2.091,1.125-.643,1.126" opacity="0.1"/><path d="M335.294,301.33l-1.448,2.9-.483,1.126-1.126,1.448s-.8,1.448-.965,1.608a6.619,6.619,0,0,1-1.287.483l1.608,1.608" transform="translate(-195 -111.46)" opacity="0.1"/><path d="M133.86,200.967l-.322,2.091.322,1.287V206.6l-.965,4.181.965,1.126,1.126,1.448" opacity="0.1"/><path d="M136.273,201.932l.965.483.643,2.091,1.287-.322.643,1.126" opacity="0.1"/><path d="M153.965,222.841l2.573-.321,1.126-1.126h1.609" opacity="0.1"/><path d="M138.364,219.464l.965,1.126,1.608.482,1.126.322.322,1.769" opacity="0.1"/><path d="M157.343,213.995l1.126-.8.482-1.287.965-.161.483-1.608" opacity="0.1"/></g></g></svg>