<svg xmlns="http://www.w3.org/2000/svg" xmlns:xlink="http://www.w3.org/1999/xlink" width="153" height="142" viewBox="0 0 153 142"><defs><clipPath id="a"><rect width="153" height="142" fill="none"/></clipPath></defs><g clip-path="url(#a)"><g transform="translate(-888 -234)"><circle cx="16" cy="16" r="16" transform="translate(888 234)" fill="#bc4141"/></g><g transform="translate(-836 -234)"><circle cx="16" cy="16" r="16" transform="translate(888 234)" fill="#bc4141"/></g><g transform="translate(-784 -234)"><circle cx="16" cy="16" r="16" transform="translate(888 234)" fill="#bc4141"/></g><g transform="translate(-888 -182)"><circle cx="16" cy="16" r="16" transform="translate(888 234)" fill="#bc4141"/></g><g transform="translate(-836 -182)"><circle cx="16" cy="16" r="16" transform="translate(888 234)" fill="#bc4141"/></g><g transform="translate(-784 -182)"><circle cx="16" cy="16" r="16" transform="translate(888 234)" fill="#bc4141"/></g><g transform="translate(-888 -130)"><circle cx="16" cy="16" r="16" transform="translate(888 234)" fill="#bc4141"/></g><g transform="translate(-836 -130)"><circle cx="16" cy="16" r="16" transform="translate(888 234)" fill="#bc4141"/></g><g transform="translate(-784 -130)"><circle cx="16" cy="16" r="16" transform="translate(888 234)" fill="#bc4141"/></g></g></svg>